<svg width="22" height="22" viewBox="0 0 22 22" fill="none" xmlns="http://www.w3.org/2000/svg">
<path d="M1 1H3.07692C3.62921 1 4.07692 1.44772 4.07692 2V13.4615C4.07692 14.0138 4.52464 14.4615 5.07692 14.4615H17.1764C17.6193 14.4615 18.0094 14.1702 18.1352 13.7456L20.6195 5.36101C20.8094 4.72011 20.3292 4.07692 19.6607 4.07692H7.53846" stroke="#313030" stroke-width="2" stroke-linecap="round"/>
<path d="M7.69229 19.4615C7.69229 20.1837 7.10682 20.7692 6.3846 20.7692C5.66238 20.7692 5.0769 20.1837 5.0769 19.4615C5.0769 18.7393 5.66238 18.1538 6.3846 18.1538C7.10682 18.1538 7.69229 18.7393 7.69229 19.4615Z" fill="white" stroke="#313030" stroke-width="2"/>
<path d="M16.1538 19.4615C16.1538 20.1837 15.5684 20.7692 14.8461 20.7692C14.1239 20.7692 13.5385 20.1837 13.5385 19.4615C13.5385 18.7393 14.1239 18.1538 14.8461 18.1538C15.5684 18.1538 16.1538 18.7393 16.1538 19.4615Z" fill="white" stroke="#313030" stroke-width="2"/>
<path d="M9.74939 10.6929C9.84241 9.59992 10.37 8.52 10.37 7.43457" stroke="#313030" stroke-width="3" stroke-linecap="round"/>
<path d="M7.88742 11.779C7.1327 11.5903 7.63594 9.37247 8.04258 8.98616C8.39401 8.6523 8.09862 9.72081 8.04258 9.81367C7.73563 10.3223 6.90495 10.4029 6.58581 9.86539C6.36483 9.4932 6.36724 8.04067 6.32722 9.14132C6.30265 9.81699 6.18068 10.4922 6.18068 11.167C6.18068 11.6528 6.08384 12.1279 5.87036 12.5548" stroke="#313030" stroke-width="3" stroke-linecap="round"/>
<path d="M5.84963 7.76158C5.71193 7.54878 5.54829 7.08145 5.59348 6.82038C5.63699 6.56895 6.96585 6.68933 7.1959 6.68933C7.99315 6.68933 8.79039 6.68933 9.58763 6.68933C11.9913 6.68933 14.3949 6.68933 16.7986 6.68933C17.3267 6.68933 17.8549 6.68933 18.3831 6.68933C18.4719 6.68933 18.796 6.68933 18.7703 6.68933C18.671 6.68933 18.5718 6.68933 18.4725 6.68933C17.9999 6.68933 17.5273 6.68933 17.0547 6.68933" stroke="#313030" stroke-width="3" stroke-linecap="round"/>
<path d="M19.092 5.349C18.8454 6.02958 18.661 6.71492 18.4695 7.41309C18.2025 8.38623 17.6898 9.26648 17.433 10.2456C17.2772 10.8395 17.1294 11.4571 17.0309 12.0625C16.964 12.4734 16.9906 12.8747 16.4918 12.9025C14.8636 12.9929 13.2056 12.9084 11.5743 12.9084C10.2022 12.9084 8.8301 12.9084 7.45801 12.9084" stroke="#313030" stroke-width="3" stroke-linecap="round"/>
<path d="M10.7284 11.997C10.9947 11.5278 11.3251 10.9211 11.4254 10.3827C11.5264 9.84 11.4337 8.97349 11.8304 8.539C12.1151 8.22725 12.0956 9.26648 12.0985 9.32234C12.1335 9.98669 12.0402 10.663 12.1045 11.3239C12.1241 11.5256 12.1655 11.8189 12.4142 11.6217C13.0633 11.1071 13.0811 10.2881 13.4448 9.60827C13.7088 9.11469 14.2127 8.85659 14.7374 8.72366C15.2932 8.58286 14.9752 9.67743 14.94 9.93591C14.8796 10.3793 14.8583 10.447 14.797 10.8652C14.7847 10.9494 14.7727 11.0337 14.7642 11.1184C14.7497 11.2636 14.7571 11.2491 14.8089 11.1243C15.1759 10.241 15.4854 9.31309 16.0152 8.50921C16.4585 7.83661 16.2376 8.85611 16.2029 9.10789C16.1106 9.7759 16.0121 10.4655 15.8037 11.1094C15.5431 11.9149 16.1381 9.44957 16.3041 8.61942" stroke="#313030" stroke-width="3" stroke-linecap="round"/>
<path d="M18.4486 5.40257C17.341 5.40257 16.239 5.34895 15.1306 5.34895C14.1824 5.34895 13.2343 5.34895 12.2861 5.34895C11.1351 5.34895 10.0114 5.15913 8.86381 5.13748C7.67355 5.11502 6.5601 5.40257 5.36707 5.40257" stroke="#313030" stroke-width="3" stroke-linecap="round"/>
<path d="M5.11997 6.00977C4.77655 6.20055 4.95913 7.52176 4.95913 7.8326" stroke="#313030" stroke-width="3" stroke-linecap="round"/>
<path d="M5.01277 6.59937C4.9802 7.44617 4.86126 8.28747 4.85193 9.13704C4.84726 9.56171 4.9802 9.93801 5.00979 10.3523C5.06905 11.1819 4.99694 12.0495 4.90554 12.8721" stroke="#313030" stroke-width="3" stroke-linecap="round"/>
<path d="M4.69104 9.22644V9.54812" stroke="#313030" stroke-width="2" stroke-linecap="round"/>
<path d="M4.5303 11.1029L4.47668 11.1565" stroke="#313030" stroke-width="2" stroke-linecap="round"/>
<path d="M4.26221 11.9071C4.28271 11.743 4.42305 11.6207 4.42305 11.4246C4.42305 11.1733 4.40789 10.928 4.48857 10.6859C4.57614 10.4232 4.51673 10.1281 4.57197 9.85192C4.62042 9.60966 4.74472 9.39761 4.74472 9.14602C4.74472 8.86683 4.79834 8.59563 4.79834 8.31502C4.79834 8.08216 4.69538 7.83264 4.7477 7.5972C4.81078 7.31335 4.90197 7.01641 4.98002 6.72153C5.04642 6.4707 5.0038 6.18848 5.12001 5.95605" stroke="#313030" stroke-width="2" stroke-linecap="round"/>
<path d="M4.36938 11.3174V11.4246" stroke="#313030" stroke-width="2" stroke-linecap="round"/>
<path d="M4.42297 10.5132V10.7276" stroke="#313030" stroke-width="2" stroke-linecap="round"/>
<path d="M4.58386 9.86977V9.81616" stroke="#313030" stroke-width="2" stroke-linecap="round"/>
<path d="M4.3158 9.28003V9.60171" stroke="#313030" stroke-width="2" stroke-linecap="round"/>
<path d="M5.2272 14.1052H5.17358" stroke="#313030" stroke-width="2" stroke-linecap="round"/>
<path d="M4.58393 13.9979C4.49428 13.5286 4.44905 13.074 4.4767 12.604" stroke="#313030" stroke-width="2" stroke-linecap="round"/>
<path d="M4.95913 14.4269C4.56283 14.3829 4.4238 13.7612 4.36938 13.4619" stroke="#313030" stroke-width="2" stroke-linecap="round"/>
<path d="M4.20862 13.8371C4.22308 13.6708 4.27552 13.5159 4.31584 13.3546" stroke="#313030" stroke-width="2" stroke-linecap="round"/>
<path d="M4.10132 13.6763C4.11816 13.1374 4.16124 12.604 4.20854 12.0679" stroke="#313030" stroke-width="2" stroke-linecap="round"/>
<path d="M4.10132 13.5691C4.14278 12.885 4.25114 12.2555 4.36938 11.5854" stroke="#313030" stroke-width="2" stroke-linecap="round"/>
<path d="M4.58384 14.2125C4.2969 14.0038 4.15367 13.3962 4.16685 13.0568C4.17808 12.7676 4.30323 12.4563 4.36939 12.1752" stroke="#313030" stroke-linecap="round"/>
<path d="M4.58385 14.3196C3.82299 14.2055 4.25852 12.5202 4.42302 12.0679" stroke="#313030" stroke-linecap="round"/>
<path d="M4.10139 14.0516C3.94319 13.2607 4.09592 12.4458 4.20861 11.6569C4.30134 11.0078 4.37441 10.3567 4.47668 9.70898" stroke="#313030" stroke-linecap="round"/>
<path d="M4.20862 12.6576C4.6137 11.2951 4.41684 9.77987 4.50945 8.3805C4.55519 7.68927 4.7598 7.02539 4.79836 6.3313" stroke="#313030" stroke-linecap="round"/>
</svg>
