<svg width="35" height="35" viewBox="0 0 35 35" fill="none" xmlns="http://www.w3.org/2000/svg">
<path d="M2 2H5.76923C6.32151 2 6.76923 2.44772 6.76923 3V21.8654C6.76923 22.4177 7.21695 22.8654 7.76923 22.8654H27.4841C27.927 22.8654 28.3171 22.5741 28.4429 22.1495L32.6195 8.05332C32.8094 7.41242 32.3292 6.76923 31.6607 6.76923H12.1346" stroke="#313030" stroke-width="3" stroke-linecap="round"/>
<path d="M12.4231 30.6154C12.4231 31.7624 11.4932 32.6923 10.3462 32.6923C9.1991 32.6923 8.26923 31.7624 8.26923 30.6154C8.26923 29.4683 9.1991 28.5385 10.3462 28.5385C11.4932 28.5385 12.4231 29.4683 12.4231 30.6154Z" stroke="#313030" stroke-width="3"/>
<path d="M25.5385 30.6154C25.5385 31.7624 24.6086 32.6923 23.4615 32.6923C22.3145 32.6923 21.3846 31.7624 21.3846 30.6154C21.3846 29.4683 22.3145 28.5385 23.4615 28.5385C24.6086 28.5385 25.5385 29.4683 25.5385 30.6154Z" stroke="#313030" stroke-width="3"/>
</svg>
