<svg width="35" height="35" viewBox="0 0 35 35" fill="none" xmlns="http://www.w3.org/2000/svg">
<path d="M2 2H5.76923C6.32151 2 6.76923 2.44772 6.76923 3V21.8654C6.76923 22.4177 7.21695 22.8654 7.76923 22.8654H27.4841C27.927 22.8654 28.3171 22.5741 28.4429 22.1495L32.6195 8.05332C32.8094 7.41242 32.3292 6.76923 31.6607 6.76923H12.1346" stroke="#313030" stroke-width="3" stroke-linecap="round"/>
<path d="M12.4231 30.6154C12.4231 31.7624 11.4932 32.6923 10.3462 32.6923C9.1991 32.6923 8.26923 31.7624 8.26923 30.6154C8.26923 29.4683 9.1991 28.5385 10.3462 28.5385C11.4932 28.5385 12.4231 29.4683 12.4231 30.6154Z" stroke="#313030" stroke-width="3"/>
<path d="M25.5385 30.6154C25.5385 31.7624 24.6086 32.6923 23.4615 32.6923C22.3145 32.6923 21.3846 31.7624 21.3846 30.6154C21.3846 29.4683 22.3145 28.5385 23.4615 28.5385C24.6086 28.5385 25.5385 29.4683 25.5385 30.6154Z" stroke="#313030" stroke-width="3"/>
<path d="M24.485 13.55C25.0372 12.5962 25.8412 11.7799 26.679 11.0817" stroke="#313030" stroke-width="3" stroke-linecap="round"/>
<path d="M24.485 17.8008C24.8947 17.514 25.1137 16.5518 25.3534 16.1096C25.7143 15.4441 26.0601 14.7753 26.4124 14.1061C26.9213 13.1392 27.5677 12.2054 28.1874 11.3103C28.6619 10.6248 28.9796 11.478 29.0025 11.9121C29.0738 13.2676 28.4344 14.8073 27.8065 15.9878C27.668 16.248 27.4778 17.511 27.5093 17.0695C27.5608 16.3487 27.7922 15.6638 27.9664 14.9669C28.1724 14.1431 28.0573 15.2395 28.0502 15.5154C28.0357 16.0825 27.8247 16.6295 27.7455 17.1914C27.6562 17.8255 27.562 18.2739 27.7912 17.2752C28.2154 15.427 28.6106 13.6482 28.8425 11.7674C28.9277 11.0763 29.06 10.2939 29.3529 9.64955C29.4329 9.47348 29.4802 9.28507 29.5586 9.10867C29.5734 9.07533 29.7815 8.88422 29.711 8.88774C28.2916 8.95871 27.0112 9.84762 25.6125 9.84762C25.036 9.84762 24.4596 9.84762 23.8832 9.84762C23.8178 9.84762 23.4278 9.86043 23.5708 9.84C24.381 9.72426 25.2077 9.57125 26.0086 9.40577C26.9177 9.21793 27.8702 9.02487 28.8044 9.02487C29.0555 9.02487 29.4445 9.1159 29.5586 8.88774" stroke="#313030" stroke-width="3" stroke-linecap="round"/>
<path d="M30.5185 8.33923C28.9922 8.38548 27.5615 8.97719 26.0695 9.23054C24.5753 9.48428 23.1785 9.84761 21.6511 9.84761C19.3075 9.84761 16.9324 9.71048 14.612 9.71048" stroke="#313030" stroke-width="3" stroke-linecap="round"/>
<path d="M22.5652 8.065C21.0933 8.065 19.6395 8.6135 18.1773 8.6135" stroke="#313030" stroke-width="3" stroke-linecap="round"/>
<path d="M11.8695 9.43622H14.7491" stroke="#313030" stroke-width="3" stroke-linecap="round"/>
<path d="M8.03002 9.0249H12.418" stroke="#313030" stroke-width="3" stroke-linecap="round"/>
<path d="M10.6354 9.43622C9.38135 9.43622 9.17099 10.9911 9.1194 11.9197C9.01544 13.7911 8.9899 15.6507 8.9899 17.5266" stroke="#313030" stroke-width="3" stroke-linecap="round"/>
<path d="M11.4581 10.6703C11.4071 11.5885 11.3462 12.5011 11.3134 13.4205C11.2699 14.6377 10.8116 15.7716 10.7725 16.9933C10.7433 17.9061 10.6354 18.8063 10.6354 19.7206" stroke="#313030" stroke-width="3" stroke-linecap="round"/>
<path d="M9.5384 14.2356C8.86722 15.7122 7.86294 17.711 8.41093 19.4159C8.57116 19.9144 8.50909 21.2731 8.88324 21.6099C9.46828 22.1364 11.3621 20.6061 11.9762 20.4367C12.8236 20.2029 13.7272 20.161 14.612 19.9644C16.0723 19.6399 15.6536 17.9679 14.9624 17.0848C14.6426 16.6761 14.1287 16.321 13.9949 15.8125C13.8767 15.3633 13.9187 14.8646 13.9264 14.4032C13.9409 13.5334 15.003 12.6333 14.612 11.8283C14.4561 11.5073 14.2297 11.2189 13.8502 11.2189C13.2735 11.2189 13.3062 12.0515 13.1798 12.453C12.7052 13.9605 13.0755 15.5671 13.1036 17.1152C13.1166 17.8297 13.1787 18.8369 12.6618 19.4159C12.3416 19.7745 11.9537 21.0532 12.7837 20.071C13.7425 18.9364 14.5453 17.5505 15.0843 16.1706C15.3806 15.4123 15.5712 14.4967 15.9833 13.7938C16.3678 13.1378 16.8028 12.5932 17.0803 11.8588C17.1089 11.7831 17.3393 10.9672 17.3393 11.3865C17.3393 11.7133 17.1629 11.9762 17.0193 12.2549C16.7367 12.8036 16.8378 13.3994 16.7451 13.9918C16.4644 15.7848 15.5719 17.4691 15.5719 19.3092" stroke="#313030" stroke-width="3" stroke-linecap="round"/>
<path d="M15.1605 20.5434C15.7226 19.0614 16.7979 17.7561 17.5069 16.3382C18.0622 15.2276 18.5058 14.059 19 12.9253C19.1987 12.4694 19.3426 12.1485 19.6856 11.7674C20.1018 11.305 20.04 11.2189 20.7217 11.2189C21.6872 11.2189 22.6187 11.356 23.5861 11.356C24.7496 11.356 24.8551 13.0632 24.2869 13.7938C23.7953 14.4259 22.9488 15.1769 22.291 15.6373C21.4172 16.249 20.2949 16.3815 19.518 17.1457C18.9814 17.6735 18.5426 18.6619 17.903 19.035C17.5517 19.2399 17.2485 19.5125 16.8974 19.7206C16.738 19.8151 17.5778 18.4429 17.6973 18.2884C18.7115 16.9774 19.9358 15.8523 20.9121 14.5099C21.1299 14.2104 21.3035 13.8376 21.5368 13.5576C21.7593 13.2907 21.8711 13.1128 22.0777 12.7882C22.3712 12.3269 21.8991 12.8306 21.7958 12.9482C21.193 13.6342 20.6502 14.3922 20.097 15.1193C19.291 16.1786 18.9283 17.5414 18.1468 18.6236C17.9314 18.9218 17.5108 19.3661 17.1564 19.4768C16.7946 19.5899 16.2794 19.9281 16.1509 20.2996C15.7913 21.3383 18.1526 20.4872 18.5962 20.33C20.3728 19.7009 21.8056 18.712 23.1747 17.4733C23.5062 17.1734 24.0861 16.9625 24.3479 16.6353C24.4787 16.4718 24.4272 17.348 24.3936 17.4428C24.1895 18.0179 23.5342 18.4774 23.1137 18.8979C22.8059 19.2057 20.4385 20.6312 21.4987 20.8481C22.9838 21.1518 23.9654 19.737 25.2392 19.454C25.5064 19.3946 26.679 18.5863 26.679 19.1035C26.679 20.2322 26.6918 20.4062 25.4449 20.4062" stroke="#313030" stroke-width="3" stroke-linecap="round"/>
<path d="M26.5419 19.4464C26.5419 20.7779 22.163 20.4062 21.194 20.4062" stroke="#313030" stroke-width="3" stroke-linecap="round"/>
<path d="M14.8863 17.2524C14.2138 17.2524 13.5895 17.271 12.9665 17.1152" stroke="#313030" stroke-width="3" stroke-linecap="round"/>
</svg>
