<svg width="34" height="31" viewBox="0 0 34 31" fill="none" xmlns="http://www.w3.org/2000/svg">
<path d="M16.7992 8.72344C16.4094 6.4823 14.2852 2 8.90642 2C2.18298 2 -5.41743 15.7392 16.7992 28.6015" stroke="#313030" stroke-width="3" stroke-linecap="round"/>
<path d="M17.2008 8.72344C17.5906 6.4823 19.7148 2 25.0936 2C31.817 2 39.4174 15.7392 17.2008 28.6015" stroke="#313030" stroke-width="3" stroke-linecap="round"/>
<path d="M6.46482 4.85522C5.58132 5.21283 5.38706 6.05386 4.80786 6.74889" stroke="#313030" stroke-linecap="round"/>
<path d="M6.93823 7.69574C6.58954 8.04443 6.40277 8.54439 6.24126 9.00202C6.09647 9.41226 6.02398 9.81965 5.9914 10.2513C5.98845 10.2903 5.90486 11.0133 5.89496 11.0097C5.70027 10.9389 5.71648 9.36901 5.71085 9.2475C5.67686 8.5132 5.60544 7.86451 6.11852 7.29684C6.77916 6.56591 7.34674 5.74183 7.91575 4.93852C8.01969 4.79178 8.10105 4.64899 8.25328 4.54401C8.31927 4.4985 8.90502 4.26029 8.56012 4.24155C7.59943 4.18934 7.15741 4.59406 6.82864 5.39002C6.63755 5.85267 6.36645 6.0443 6.044 6.43329C5.48477 7.10792 5.47885 8.03366 5.07086 8.77408C4.42806 9.94064 3.86801 11.2648 4.17663 12.6316C4.36743 13.4765 5.09043 14.0559 5.46538 14.8058C5.86633 15.6077 5.96905 16.4824 6.4692 17.2474C7.20836 18.3778 7.82847 19.6269 8.67848 20.6753C9.28317 21.421 9.86036 22.1987 10.673 22.7311C11.4189 23.2198 12.1076 23.7757 12.8559 24.2653C13.8307 24.903 14.7497 25.7134 15.7754 26.2642C16.4966 26.6516 17.1148 26.8228 17.9496 26.5316C18.847 26.2186 19.1138 25.2008 20.0098 24.8966C20.7525 24.6443 21.3807 24.2649 22.0087 23.7919C22.5591 23.3773 22.9355 22.795 23.4728 22.3717C23.9731 21.9775 24.5358 21.55 24.8667 20.9953C25.228 20.3895 26.0311 19.9108 26.6026 19.5224C27.4777 18.9276 27.7612 18.2658 28.3647 17.4359C29.2169 16.2642 29.4961 14.7997 30.0524 13.4732C30.3001 12.8825 30.6636 12.3159 30.688 11.6584C30.7045 11.2127 30.688 10.7631 30.688 10.3171C30.688 8.62804 30.4711 6.46417 28.8732 5.56536" stroke="#313030" stroke-width="4" stroke-linecap="round"/>
<path d="M28.8732 5.56545C28.3662 5.38047 27.6001 5.28453 27.1812 4.92546C26.9226 4.70385 26.9856 4.56253 26.6245 4.50026C25.9416 4.38252 25.2005 4.46081 24.5073 4.46081C24.1941 4.46081 23.8726 4.44021 23.5604 4.46519C23.2649 4.48884 23.1311 4.81302 22.9818 5.02628C22.725 5.3931 22.3999 5.67926 22.0613 5.96873C21.7765 6.21219 21.5858 6.51654 21.2898 6.74022C20.8493 7.07302 20.3852 7.40681 20.0317 7.8361C19.3977 8.60594 19.0666 9.57498 18.5369 10.4136C18.1146 11.0823 17.6384 11.6271 16.9852 12.0793C16.302 12.5523 15.6417 11.925 15.109 11.413C14.2648 10.6015 14.0997 9.35901 13.1628 8.63828C12.4492 8.0894 11.818 7.74643 11.2823 6.99008C10.9601 6.53525 10.1043 5.40764 11.2077 5.40764C11.7523 5.40764 12.0381 5.90026 12.2992 6.31941C12.652 6.88563 12.9592 7.47889 13.2943 8.05527C13.5488 8.49306 13.8121 8.90436 14.0307 9.36155C14.4998 10.3424 15.1853 11.2082 15.6263 12.2021C15.789 12.5687 15.9671 12.9753 15.5386 13.2366C14.8195 13.6751 13.6729 13.9498 12.8384 13.9292C11.0742 13.8855 9.87259 11.5814 9.21763 10.1769C8.9405 9.58258 8.69921 9.10696 8.33655 8.57252C8.3116 8.53575 8.27459 8.42174 8.31463 8.44102C8.50267 8.53156 8.77487 8.82147 8.87572 8.93197C9.62318 9.75099 10.1297 10.731 10.7299 11.6541C11.1198 12.2537 11.5418 12.8295 12.0231 13.3593C12.1266 13.4733 12.6693 14.1576 12.4439 13.5259C12.039 12.3909 10.6604 9.05115 11.1727 10.1418C11.474 10.7834 11.6047 11.6511 11.7162 12.3248C11.9457 13.7116 12.1233 15.255 10.445 15.6913C9.1244 16.0347 8.26189 15.362 7.7141 14.2185C7.48831 13.7471 7.15093 12.9841 7.30205 12.43C7.39514 12.0887 7.75906 12.9876 7.88067 13.3198C8.13382 14.0115 8.39357 14.801 8.34094 15.551C8.31384 15.9371 8.15254 15.5864 8.30587 15.7264C9.05528 16.4106 9.61566 17.3588 10.1908 18.1855C10.9498 19.2766 11.7278 19.9713 12.8384 20.6973C13.7885 21.3183 14.8327 21.8772 15.7052 22.6085C16.0238 22.8755 16.2536 23.1854 16.5907 23.4326C17.188 23.8706 18.1948 22.4444 18.5238 22.0912C19.421 21.1278 20.1032 20.0795 21.2898 19.4523C22.2637 18.9375 23.0851 18.3395 23.9812 17.7165C25.3147 16.7894 26.049 15.4211 26.8568 14.0431C27.29 13.3042 27.8684 12.4787 28.0316 11.6234C28.1823 10.8336 28.2966 9.80298 27.8738 9.08101C27.2942 8.09144 26.1438 7.88119 25.1209 7.59062C24.4841 7.40971 23.642 7.21448 23.0125 7.5161C22.0308 7.98647 21.4015 9.0212 20.7901 9.8788C20.0983 10.8491 19.5209 11.7946 18.5369 12.5089C17.2784 13.4224 15.9329 13.621 14.5041 14.1045C13.9264 14.3 13.469 14.6372 13.0137 15.0338C12.7713 15.2449 12.3146 15.5524 12.1809 15.8667C12.0722 16.122 12.6929 16.6991 12.8252 16.9099C13.3283 17.7111 13.7723 18.4489 14.5611 19.0096C15.3854 19.5956 16.4599 20.1872 17.4937 20.2326C18.827 20.2912 18.0949 18.7078 17.4498 18.2337C16.8212 17.7718 16.0654 17.8935 15.4203 17.585C14.643 17.2132 15.421 15.911 15.9156 15.6738C16.7048 15.2953 17.7 15.4366 18.5413 15.2617C19.6377 15.0338 20.6654 14.5044 21.5615 13.8415C22.9479 12.816 23.4172 11.1524 24.5073 9.87442C24.8045 9.52591 25.3457 8.96624 25.8486 9.31772C27.3047 10.3354 25.3799 12.1084 24.5686 12.6755C23.8398 13.1848 23.0242 13.566 22.3243 14.1176C21.829 14.508 21.4455 15.0215 21.0794 15.5291C20.7124 16.0378 20.3589 16.564 20.0712 17.1203C19.8879 17.4746 19.5576 17.6966 19.212 17.8743C18.3975 18.2932 17.4186 19.0306 16.503 19.1455C15.2196 19.3066 13.8185 18.1191 12.9348 17.3658C11.7708 16.3735 10.8073 15.1421 9.9979 13.8502C8.91679 12.1248 8.04569 10.2442 7.17493 8.40595" stroke="#313030" stroke-width="4" stroke-linecap="round"/>
<path d="M8.35847 17.0063C7.5787 16.9525 7.04217 16.7361 6.64891 16.0244C5.79677 14.4822 5.14752 12.741 4.64127 11.0535C4.18325 9.5268 4.59519 7.5579 5.4566 6.25796C6.72503 4.34378 8.53332 3.11938 10.8834 3.11938" stroke="#313030" stroke-width="4" stroke-linecap="round"/>
<path d="M27.3741 18.8211C26.9504 18.7712 26.3216 19.1982 26.0152 19.4084C25.1135 20.0272 24.4366 20.856 23.8761 21.7843C23.5056 22.3978 23.2262 23.0575 22.6925 23.5552C22.0449 24.1592 21.3042 24.6885 20.6323 25.2692C19.6343 26.1317 18.3356 26.2691 17.1518 26.7464C16.6267 26.9582 16.3769 27.2728 15.8192 26.9042C15.1664 26.4727 14.8372 25.7205 14.2149 25.2473C13.5473 24.7396 13 24.1021 12.4001 23.5158C12.0258 23.15 11.7899 22.6449 11.519 22.2051C10.9478 21.2779 10.3273 20.3768 9.86644 19.3865C8.48623 16.4205 7.85844 13.0718 7.09607 9.90503" stroke="#313030" stroke-width="4" stroke-linecap="round"/>
</svg>
