<svg width="34" height="32" viewBox="0 0 34 32" fill="none" xmlns="http://www.w3.org/2000/svg">
<path d="M2 25.0909V14.6506C2 12.4083 3.07424 10.3017 4.8892 8.98483L13.0863 3.03746C15.5745 1.23216 18.9493 1.26149 21.4057 3.10976L29.2087 8.98082C30.9662 10.3032 32 12.3748 32 14.5743V25.0909C32 27.8021 29.8021 30 27.0909 30C24.3797 30 22.1818 27.8021 22.1818 25.0909V24.8649C22.1818 22.0288 19.8361 19.7297 17 19.7297C14.1639 19.7297 11.8182 22.0288 11.8182 24.8649V25.0909C11.8182 27.8021 9.62031 30 6.90909 30C4.19788 30 2 27.8021 2 25.0909Z" fill="#313030" stroke="#313030" stroke-width="3"/>
</svg>
