<svg width="35" height="27" viewBox="0 0 35 27" fill="none" xmlns="http://www.w3.org/2000/svg">
<g clip-path="url(#clip0_11_241)">
<path fill-rule="evenodd" clip-rule="evenodd" d="M22.3059 0.355382C22.1126 0.0155421 21.6845 -0.100895 21.3497 0.0953114L17.1316 2.56726C16.7968 2.76346 16.6821 3.19802 16.8754 3.53785L23.1701 14.6046C23.2952 14.8244 23.5263 14.9598 23.7763 14.9598H29.4005C29.9393 14.9598 30.2761 14.3678 30.0067 13.8941L22.3059 0.355382Z" fill="#69707D"/>
<path fill-rule="evenodd" clip-rule="evenodd" d="M16.4214 5.65597C16.2281 5.31613 15.8 5.19969 15.4652 5.39589L11.2471 7.86787C10.9123 8.06405 10.7976 8.4986 10.9909 8.83845L14.2707 14.6046C14.3957 14.8244 14.6268 14.9598 14.8769 14.9598H20.501C21.0399 14.9598 21.3767 14.3678 21.1072 13.8941L16.4214 5.65597Z" fill="#69707D"/>
<path fill-rule="evenodd" clip-rule="evenodd" d="M10.4146 10.9186C10.2213 10.5787 9.79318 10.4623 9.45837 10.6585L5.24025 13.1304C4.90545 13.3266 4.79073 13.7612 4.98404 14.101L5.27044 14.6046C5.39549 14.8244 5.62658 14.9598 5.87666 14.9598H11.5008C12.0397 14.9598 12.3765 14.3678 12.107 13.8941L10.4146 10.9186Z" fill="#69707D"/>
<path d="M0.421387 20.7019C0.421387 20.1448 0.532454 19.6574 0.754587 19.2396C0.976718 18.8152 1.28052 18.487 1.66599 18.2548C2.05799 18.0227 2.49246 17.9067 2.96939 17.9067C3.43979 17.9067 3.84812 18.0095 4.19439 18.2151C4.54066 18.4206 4.79872 18.6792 4.96859 18.991V17.9962H5.87019V23.4474H4.96859V22.4327C4.79219 22.7511 4.52759 23.0163 4.17479 23.2285C3.82852 23.4341 3.42346 23.5369 2.95959 23.5369C2.48266 23.5369 2.05146 23.4175 1.66599 23.1788C1.28052 22.9401 0.976718 22.6052 0.754587 22.1741C0.532454 21.743 0.421387 21.2523 0.421387 20.7019ZM4.96859 20.7118C4.96859 20.3007 4.88692 19.9426 4.72359 19.6375C4.56026 19.3325 4.33812 19.1004 4.05719 18.9412C3.78279 18.7755 3.47899 18.6925 3.14579 18.6925C2.81259 18.6925 2.50879 18.7721 2.23439 18.9313C1.95999 19.0904 1.74112 19.3226 1.57779 19.6276C1.41446 19.9326 1.33279 20.2907 1.33279 20.7019C1.33279 21.1197 1.41446 21.4844 1.57779 21.7961C1.74112 22.1011 1.95999 22.3366 2.23439 22.5024C2.50879 22.6615 2.81259 22.7411 3.14579 22.7411C3.47899 22.7411 3.78279 22.6615 4.05719 22.5024C4.33812 22.3366 4.56026 22.1011 4.72359 21.7961C4.88692 21.4844 4.96859 21.123 4.96859 20.7118ZM7.04402 20.7019C7.04402 20.1448 7.15511 19.6574 7.37722 19.2396C7.5994 18.8152 7.9032 18.487 8.28862 18.2548C8.68062 18.0227 9.1184 17.9067 9.60182 17.9067C10.02 17.9067 10.4087 18.0062 10.768 18.2051C11.1274 18.3974 11.4018 18.6527 11.5912 18.9711V16.0863H12.4928V23.4474H11.5912V22.4228C11.4148 22.7477 11.1535 23.0163 10.8072 23.2285C10.461 23.4341 10.0559 23.5369 9.59202 23.5369C9.11511 23.5369 8.68062 23.4175 8.28862 23.1788C7.9032 22.9401 7.5994 22.6052 7.37722 22.1741C7.15511 21.743 7.04402 21.2523 7.04402 20.7019ZM11.5912 20.7118C11.5912 20.3007 11.5096 19.9426 11.3462 19.6375C11.1829 19.3325 10.9608 19.1004 10.6798 18.9412C10.4054 18.7755 10.1016 18.6925 9.76842 18.6925C9.43522 18.6925 9.13142 18.7721 8.85702 18.9313C8.58262 19.0904 8.3638 19.3226 8.20042 19.6276C8.03711 19.9326 7.95542 20.2907 7.95542 20.7019C7.95542 21.1197 8.03711 21.4844 8.20042 21.7961C8.3638 22.1011 8.58262 22.3366 8.85702 22.5024C9.13142 22.6615 9.43522 22.7411 9.76842 22.7411C10.1016 22.7411 10.4054 22.6615 10.6798 22.5024C10.9608 22.3366 11.1829 22.1011 11.3462 21.7961C11.5096 21.4844 11.5912 21.123 11.5912 20.7118ZM14.4605 17.1109C14.2906 17.1109 14.1469 17.0512 14.0293 16.9318C13.9117 16.8125 13.8529 16.6666 13.8529 16.4942C13.8529 16.3217 13.9117 16.1758 14.0293 16.0565C14.1469 15.9371 14.2906 15.8774 14.4605 15.8774C14.6238 15.8774 14.761 15.9371 14.8721 16.0565C14.9897 16.1758 15.0485 16.3217 15.0485 16.4942C15.0485 16.6666 14.9897 16.8125 14.8721 16.9318C14.761 17.0512 14.6238 17.1109 14.4605 17.1109ZM14.8917 17.9962V23.4474H13.9999V17.9962H14.8917ZM16.0784 20.7019C16.0784 20.1448 16.1895 19.6574 16.4116 19.2396C16.6337 18.8152 16.9375 18.487 17.323 18.2548C17.715 18.0227 18.1527 17.9067 18.6362 17.9067C19.0543 17.9067 19.4431 18.0062 19.8024 18.2051C20.1617 18.3974 20.4361 18.6527 20.6256 18.9711V16.0863H21.5272V23.4474H20.6256V22.4228C20.4492 22.7477 20.1879 23.0163 19.8416 23.2285C19.4953 23.4341 19.0903 23.5369 18.6264 23.5369C18.1495 23.5369 17.715 23.4175 17.323 23.1788C16.9375 22.9401 16.6337 22.6052 16.4116 22.1741C16.1895 21.743 16.0784 21.2523 16.0784 20.7019ZM20.6256 20.7118C20.6256 20.3007 20.5439 19.9426 20.3806 19.6375C20.2173 19.3325 19.9951 19.1004 19.7142 18.9412C19.4398 18.7755 19.136 18.6925 18.8028 18.6925C18.4696 18.6925 18.1658 18.7721 17.8914 18.9313C17.617 19.0904 17.3981 19.3226 17.2348 19.6276C17.0715 19.9326 16.9898 20.2907 16.9898 20.7019C16.9898 21.1197 17.0715 21.4844 17.2348 21.7961C17.3981 22.1011 17.617 22.3366 17.8914 22.5024C18.1658 22.6615 18.4696 22.7411 18.8028 22.7411C19.136 22.7411 19.4398 22.6615 19.7142 22.5024C19.9951 22.3366 20.2173 22.1011 20.3806 21.7961C20.5439 21.4844 20.6256 21.123 20.6256 20.7118ZM22.7011 20.7019C22.7011 20.1448 22.8121 19.6574 23.0343 19.2396C23.2564 18.8152 23.5602 18.487 23.9457 18.2548C24.3377 18.0227 24.7721 17.9067 25.2491 17.9067C25.7195 17.9067 26.1278 18.0095 26.4741 18.2151C26.8203 18.4206 27.0784 18.6792 27.2483 18.991V17.9962H28.1499V23.4474H27.2483V22.4327C27.0719 22.7511 26.8073 23.0163 26.4545 23.2285C26.1082 23.4341 25.7031 23.5369 25.2393 23.5369C24.7623 23.5369 24.3311 23.4175 23.9457 23.1788C23.5602 22.9401 23.2564 22.6052 23.0343 22.1741C22.8121 21.743 22.7011 21.2523 22.7011 20.7019ZM27.2483 20.7118C27.2483 20.3007 27.1666 19.9426 27.0033 19.6375C26.8399 19.3325 26.6178 19.1004 26.3369 18.9412C26.0625 18.7755 25.7587 18.6925 25.4255 18.6925C25.0923 18.6925 24.7885 18.7721 24.5141 18.9313C24.2397 19.0904 24.0208 19.3226 23.8575 19.6276C23.6941 19.9326 23.6125 20.2907 23.6125 20.7019C23.6125 21.1197 23.6941 21.4844 23.8575 21.7961C24.0208 22.1011 24.2397 22.3366 24.5141 22.5024C24.7885 22.6615 25.0923 22.7411 25.4255 22.7411C25.7587 22.7411 26.0625 22.6615 26.3369 22.5024C26.6178 22.3366 26.8399 22.1011 27.0033 21.7961C27.1666 21.4844 27.2483 21.123 27.2483 20.7118ZM31.5582 23.5369C31.1466 23.5369 30.7774 23.4673 30.4508 23.328C30.1241 23.1821 29.866 22.9832 29.6766 22.7312C29.4871 22.4725 29.3826 22.1774 29.363 21.8458H30.2842C30.3103 22.1178 30.4344 22.3399 30.6566 22.5123C30.8852 22.6848 31.1825 22.771 31.5484 22.771C31.8881 22.771 32.156 22.6947 32.352 22.5422C32.548 22.3896 32.646 22.1973 32.646 21.9652C32.646 21.7265 32.5414 21.5508 32.3324 21.438C32.1233 21.3186 31.7999 21.2026 31.3622 21.0898C30.9636 20.9838 30.637 20.8776 30.3822 20.7715C30.1339 20.6588 29.9183 20.4963 29.7354 20.2841C29.559 20.0653 29.4708 19.7801 29.4708 19.4286C29.4708 19.1501 29.5524 18.8948 29.7158 18.6627C29.8791 18.4306 30.111 18.2482 30.4116 18.1156C30.7121 17.9763 31.0551 17.9067 31.4406 17.9067C32.0351 17.9067 32.5153 18.0592 32.8812 18.3643C33.247 18.6693 33.443 19.0871 33.4692 19.6176H32.5774C32.5578 19.3325 32.4434 19.1037 32.2344 18.9313C32.0318 18.7588 31.7574 18.6726 31.4112 18.6726C31.091 18.6726 30.8362 18.7423 30.6468 18.8815C30.4573 19.0208 30.3626 19.2032 30.3626 19.4286C30.3626 19.6077 30.4181 19.7569 30.5292 19.8763C30.6468 19.989 30.7905 20.0818 30.9604 20.1548C31.1368 20.2211 31.3785 20.2974 31.6856 20.3836C32.071 20.4897 32.3846 20.5958 32.6264 20.7019C32.8681 20.8014 33.0739 20.9539 33.2438 21.1595C33.4202 21.365 33.5116 21.6336 33.5182 21.9652C33.5182 22.2636 33.4365 22.5322 33.2732 22.771C33.1098 23.0097 32.8779 23.1987 32.5774 23.338C32.2834 23.4706 31.9436 23.5369 31.5582 23.5369Z" fill="#69707D"/>
</g>
<defs>
<clipPath id="clip0_11_241">
<rect width="35" height="27" fill="white"/>
</clipPath>
</defs>
</svg>
