<svg width="50" height="38" viewBox="0 0 50 38" fill="none" xmlns="http://www.w3.org/2000/svg">
<path fill-rule="evenodd" clip-rule="evenodd" d="M31.8656 0.500167C31.5895 0.0218741 30.9779 -0.142001 30.4996 0.134142L24.4737 3.61318C23.9954 3.88932 23.8316 4.50091 24.1077 4.9792L33.1002 20.5546C33.2788 20.864 33.609 21.0546 33.9662 21.0546H42.0007C42.7705 21.0546 43.2516 20.2213 42.8667 19.5546L31.8656 0.500167Z" fill="#313030"/>
<path fill-rule="evenodd" clip-rule="evenodd" d="M23.4591 7.96025C23.1829 7.48196 22.5713 7.31808 22.0931 7.59422L16.0672 11.0733C15.5889 11.3494 15.425 11.961 15.7012 12.4393L20.3866 20.5546C20.5652 20.864 20.8953 21.0546 21.2526 21.0546H29.2871C30.0569 21.0546 30.538 20.2213 30.1531 19.5546L23.4591 7.96025Z" fill="#313030"/>
<path fill-rule="evenodd" clip-rule="evenodd" d="M14.8781 15.3669C14.602 14.8886 13.9904 14.7247 13.5121 15.0008L7.48622 18.4799C7.00793 18.756 6.84405 19.3676 7.1202 19.8459L7.52935 20.5546C7.70799 20.864 8.03811 21.0546 8.39538 21.0546H16.4299C17.1997 21.0546 17.6808 20.2213 17.2959 19.5546L14.8781 15.3669Z" fill="#313030"/>
<path d="M0.602 29.136C0.602 28.352 0.760667 27.666 1.078 27.078C1.39533 26.4807 1.82933 26.0187 2.38 25.692C2.94 25.3653 3.56067 25.202 4.242 25.202C4.914 25.202 5.49733 25.3467 5.992 25.636C6.48667 25.9253 6.85533 26.2893 7.098 26.728V25.328H8.386V33H7.098V31.572C6.846 32.02 6.468 32.3933 5.964 32.692C5.46933 32.9813 4.89067 33.126 4.228 33.126C3.54667 33.126 2.93067 32.958 2.38 32.622C1.82933 32.286 1.39533 31.8147 1.078 31.208C0.760667 30.6013 0.602 29.9107 0.602 29.136ZM7.098 29.15C7.098 28.5713 6.98133 28.0673 6.748 27.638C6.51467 27.2087 6.19733 26.882 5.796 26.658C5.404 26.4247 4.97 26.308 4.494 26.308C4.018 26.308 3.584 26.42 3.192 26.644C2.8 26.868 2.48733 27.1947 2.254 27.624C2.02067 28.0533 1.904 28.5573 1.904 29.136C1.904 29.724 2.02067 30.2373 2.254 30.676C2.48733 31.1053 2.8 31.4367 3.192 31.67C3.584 31.894 4.018 32.006 4.494 32.006C4.97 32.006 5.404 31.894 5.796 31.67C6.19733 31.4367 6.51467 31.1053 6.748 30.676C6.98133 30.2373 7.098 29.7287 7.098 29.15ZM10.0629 29.136C10.0629 28.352 10.2216 27.666 10.5389 27.078C10.8563 26.4807 11.2903 26.0187 11.8409 25.692C12.4009 25.3653 13.0263 25.202 13.7169 25.202C14.3143 25.202 14.8696 25.342 15.3829 25.622C15.8963 25.8927 16.2883 26.252 16.5589 26.7V22.64H17.8469V33H16.5589V31.558C16.3069 32.0153 15.9336 32.3933 15.4389 32.692C14.9443 32.9813 14.3656 33.126 13.7029 33.126C13.0216 33.126 12.4009 32.958 11.8409 32.622C11.2903 32.286 10.8563 31.8147 10.5389 31.208C10.2216 30.6013 10.0629 29.9107 10.0629 29.136ZM16.5589 29.15C16.5589 28.5713 16.4423 28.0673 16.2089 27.638C15.9756 27.2087 15.6583 26.882 15.2569 26.658C14.8649 26.4247 14.4309 26.308 13.9549 26.308C13.4789 26.308 13.0449 26.42 12.6529 26.644C12.2609 26.868 11.9483 27.1947 11.7149 27.624C11.4816 28.0533 11.3649 28.5573 11.3649 29.136C11.3649 29.724 11.4816 30.2373 11.7149 30.676C11.9483 31.1053 12.2609 31.4367 12.6529 31.67C13.0449 31.894 13.4789 32.006 13.9549 32.006C14.4309 32.006 14.8649 31.894 15.2569 31.67C15.6583 31.4367 15.9756 31.1053 16.2089 30.676C16.4423 30.2373 16.5589 29.7287 16.5589 29.15ZM20.6579 24.082C20.4152 24.082 20.2099 23.998 20.0419 23.83C19.8739 23.662 19.7899 23.4567 19.7899 23.214C19.7899 22.9713 19.8739 22.766 20.0419 22.598C20.2099 22.43 20.4152 22.346 20.6579 22.346C20.8912 22.346 21.0872 22.43 21.2459 22.598C21.4139 22.766 21.4979 22.9713 21.4979 23.214C21.4979 23.4567 21.4139 23.662 21.2459 23.83C21.0872 23.998 20.8912 24.082 20.6579 24.082ZM21.2739 25.328V33H19.9999V25.328H21.2739ZM22.9692 29.136C22.9692 28.352 23.1279 27.666 23.4452 27.078C23.7625 26.4807 24.1965 26.0187 24.7472 25.692C25.3072 25.3653 25.9325 25.202 26.6232 25.202C27.2205 25.202 27.7759 25.342 28.2892 25.622C28.8025 25.8927 29.1945 26.252 29.4652 26.7V22.64H30.7532V33H29.4652V31.558C29.2132 32.0153 28.8399 32.3933 28.3452 32.692C27.8505 32.9813 27.2719 33.126 26.6092 33.126C25.9279 33.126 25.3072 32.958 24.7472 32.622C24.1965 32.286 23.7625 31.8147 23.4452 31.208C23.1279 30.6013 22.9692 29.9107 22.9692 29.136ZM29.4652 29.15C29.4652 28.5713 29.3485 28.0673 29.1152 27.638C28.8819 27.2087 28.5645 26.882 28.1632 26.658C27.7712 26.4247 27.3372 26.308 26.8612 26.308C26.3852 26.308 25.9512 26.42 25.5592 26.644C25.1672 26.868 24.8545 27.1947 24.6212 27.624C24.3879 28.0533 24.2712 28.5573 24.2712 29.136C24.2712 29.724 24.3879 30.2373 24.6212 30.676C24.8545 31.1053 25.1672 31.4367 25.5592 31.67C25.9512 31.894 26.3852 32.006 26.8612 32.006C27.3372 32.006 27.7712 31.894 28.1632 31.67C28.5645 31.4367 28.8819 31.1053 29.1152 30.676C29.3485 30.2373 29.4652 29.7287 29.4652 29.15ZM32.4301 29.136C32.4301 28.352 32.5888 27.666 32.9061 27.078C33.2235 26.4807 33.6575 26.0187 34.2081 25.692C34.7681 25.3653 35.3888 25.202 36.0701 25.202C36.7421 25.202 37.3255 25.3467 37.8201 25.636C38.3148 25.9253 38.6835 26.2893 38.9261 26.728V25.328H40.2141V33H38.9261V31.572C38.6741 32.02 38.2961 32.3933 37.7921 32.692C37.2975 32.9813 36.7188 33.126 36.0561 33.126C35.3748 33.126 34.7588 32.958 34.2081 32.622C33.6575 32.286 33.2235 31.8147 32.9061 31.208C32.5888 30.6013 32.4301 29.9107 32.4301 29.136ZM38.9261 29.15C38.9261 28.5713 38.8095 28.0673 38.5761 27.638C38.3428 27.2087 38.0255 26.882 37.6241 26.658C37.2321 26.4247 36.7981 26.308 36.3221 26.308C35.8461 26.308 35.4121 26.42 35.0201 26.644C34.6281 26.868 34.3155 27.1947 34.0821 27.624C33.8488 28.0533 33.7321 28.5573 33.7321 29.136C33.7321 29.724 33.8488 30.2373 34.0821 30.676C34.3155 31.1053 34.6281 31.4367 35.0201 31.67C35.4121 31.894 35.8461 32.006 36.3221 32.006C36.7981 32.006 37.2321 31.894 37.6241 31.67C38.0255 31.4367 38.3428 31.1053 38.5761 30.676C38.8095 30.2373 38.9261 29.7287 38.9261 29.15ZM45.0831 33.126C44.4951 33.126 43.9677 33.028 43.5011 32.832C43.0344 32.6267 42.6657 32.3467 42.3951 31.992C42.1244 31.628 41.9751 31.2127 41.9471 30.746H43.2631C43.3004 31.1287 43.4777 31.4413 43.7951 31.684C44.1217 31.9267 44.5464 32.048 45.0691 32.048C45.5544 32.048 45.9371 31.9407 46.2171 31.726C46.4971 31.5113 46.6371 31.2407 46.6371 30.914C46.6371 30.578 46.4877 30.3307 46.1891 30.172C45.8904 30.004 45.4284 29.8407 44.8031 29.682C44.2337 29.5327 43.7671 29.3833 43.4031 29.234C43.0484 29.0753 42.7404 28.8467 42.4791 28.548C42.2271 28.24 42.1011 27.8387 42.1011 27.344C42.1011 26.952 42.2177 26.5927 42.4511 26.266C42.6844 25.9393 43.0157 25.6827 43.4451 25.496C43.8744 25.3 44.3644 25.202 44.9151 25.202C45.7644 25.202 46.4504 25.4167 46.9731 25.846C47.4957 26.2753 47.7757 26.8633 47.8131 27.61H46.5391C46.5111 27.2087 46.3477 26.8867 46.0491 26.644C45.7597 26.4013 45.3677 26.28 44.8731 26.28C44.4157 26.28 44.0517 26.378 43.7811 26.574C43.5104 26.77 43.3751 27.0267 43.3751 27.344C43.3751 27.596 43.4544 27.806 43.6131 27.974C43.7811 28.1327 43.9864 28.2633 44.2291 28.366C44.4811 28.4593 44.8264 28.5667 45.2651 28.688C45.8157 28.8373 46.2637 28.9867 46.6091 29.136C46.9544 29.276 47.2484 29.4907 47.4911 29.78C47.7431 30.0693 47.8737 30.4473 47.8831 30.914C47.8831 31.334 47.7664 31.712 47.5331 32.048C47.2997 32.384 46.9684 32.65 46.5391 32.846C46.1191 33.0327 45.6337 33.126 45.0831 33.126Z" fill="#313030"/>
</svg>
