<svg width="37" height="36" viewBox="0 0 37 36" fill="none" xmlns="http://www.w3.org/2000/svg">
<path d="M1.33575 9.46362H4.15702C4.7093 9.46362 5.15702 9.91134 5.15702 10.4636V25.1816C5.15702 25.7339 5.60473 26.1817 6.15702 26.1817H21.606C22.0489 26.1817 22.439 25.8904 22.5648 25.4657L25.7935 14.569C25.9834 13.9281 25.5031 13.2849 24.8347 13.2849H9.45594" stroke="#408C1C" stroke-width="2" stroke-linecap="round"/>
<path d="M9.88898 32.3912C9.88898 33.4218 9.05356 34.2572 8.02303 34.2572C6.99249 34.2572 6.15708 33.4218 6.15708 32.3912C6.15708 31.3607 6.99249 30.5253 8.02303 30.5253C9.05356 30.5253 9.88898 31.3607 9.88898 32.3912Z" stroke="#408C1C" stroke-width="2"/>
<path d="M20.3974 32.3912C20.3974 33.4218 19.562 34.2572 18.5314 34.2572C17.5009 34.2572 16.6655 33.4218 16.6655 32.3912C16.6655 31.3607 17.5009 30.5253 18.5314 30.5253C19.562 30.5253 20.3974 31.3607 20.3974 32.3912Z" stroke="#408C1C" stroke-width="2"/>
<circle cx="28" cy="9" r="9" fill="#B59A0C"/>
</svg>
