<svg width="23" height="21" viewBox="0 0 23 21" fill="none" xmlns="http://www.w3.org/2000/svg">
<path d="M11.5707 5.61296C11.3033 4.0753 9.84586 1 6.15549 1C1.54253 1 -3.67211 10.4265 11.5707 19.2513" stroke="#DB3328" stroke-width="2" stroke-linecap="round"/>
<path d="M11.8462 5.61296C12.1136 4.0753 13.5711 1 17.2614 1C21.8744 1 27.089 10.4265 11.8462 19.2513" stroke="#DB3328" stroke-width="2" stroke-linecap="round"/>
<path d="M12.2273 9.69417C12.2273 8.83738 12.9674 8.31948 13.6925 7.98565C14.0281 7.83114 14.4056 7.69965 14.7797 7.75785C15.2565 7.83202 15.2903 8.21499 15.2457 8.62764C15.1686 9.34034 14.7123 10.0729 14.0057 10.287C13.9171 10.3138 13.6006 10.4167 13.5216 10.3051C13.3172 10.0161 13.5275 9.49089 13.6459 9.21785C13.8226 8.8102 14.9693 7.10885 15.5201 7.94423C15.9486 8.59426 15.5426 9.65414 14.8884 9.9608C14.0303 10.3631 14.1734 8.72929 14.1921 8.29888C14.2263 7.51104 14.5274 6.34281 15.4113 6.0804C16.097 5.87685 16.4612 7.50184 15.3984 7.40061C14.7878 7.34246 14.8121 6.39945 14.8444 5.97944C14.8904 5.38142 15.26 4.78679 15.8411 4.58933C16.7932 4.26579 17.4844 5.79589 16.4882 6.18653C15.9873 6.38296 15.3767 6.13981 15.1732 5.64033C14.9117 4.99848 15.2547 4.51991 15.7686 4.14926C16.5237 3.60456 17.4421 3.38616 18.1165 4.16997C18.42 4.52268 18.48 5.00073 18.0518 5.29862C17.52 5.66854 16.783 5.46648 16.3174 5.10706C15.9299 4.80798 15.6352 4.31448 15.9601 3.83344C16.3226 3.29684 17.2293 3.14345 17.8214 3.08273C18.1544 3.04857 18.4016 3.42738 18.6109 3.6367C18.8335 3.85926 19.2102 4.07686 19.3358 4.37188C19.5028 4.76447 19.5429 5.30894 19.5429 5.73352C19.5429 6.15429 19.4795 6.63157 19.2995 7.01232C19.1836 7.25762 19.1099 7.5131 18.9371 7.72679C18.8195 7.87229 18.7017 7.99161 18.6109 8.15909C18.464 8.43039 18.2394 8.60478 18.0621 8.85026C17.979 8.96541 17.9337 9.10777 17.8447 9.21785C17.7354 9.35309 17.606 9.44192 17.5185 9.59839C17.3245 9.94552 17.1371 10.1654 16.9801 9.69417" stroke="#DB3328" stroke-width="3" stroke-linecap="round"/>
<path d="M19.5895 7.08494C19.7948 7.08494 20.0002 7.08494 20.2056 7.08494C20.5167 7.08494 20.7106 7.58248 20.7906 7.85119C20.9537 8.39905 20.6881 8.96562 20.3454 9.39403C20.0278 9.79102 19.7229 10.2072 19.3617 10.5589C19.0898 10.8236 18.7649 11.0314 18.4919 11.3045C18.1403 11.6561 17.9025 12.1718 17.6324 12.5884C17.5363 12.7368 17.4453 12.8873 17.3529 13.0389C17.2366 13.2294 17.041 13.2927 16.8869 13.4427C16.6109 13.7112 16.3135 13.9729 15.9783 14.1701C15.601 14.392 15.2845 14.7448 14.9765 15.0528C14.839 15.1904 14.7056 15.3018 14.5364 15.3997C14.4263 15.4635 14.339 15.5843 14.2283 15.6327C13.9174 15.7687 13.6428 15.9974 13.343 16.1737C13.0641 16.3378 12.7918 16.4688 12.5069 16.6112C12.0963 16.8165 11.7037 17.2005 11.2126 17.1497C11.1136 17.1394 10.9938 16.9911 10.9226 16.9219C10.791 16.7939 10.6241 16.6958 10.4981 16.5698C10.327 16.3987 10.1463 16.1929 9.94153 16.0521C9.69837 15.8849 9.45458 15.8054 9.22188 15.6094C9.00295 15.425 8.81254 15.213 8.61613 15.0062C8.16654 14.533 7.63283 13.9241 7.01375 13.6809C6.72626 13.5679 6.54805 13.4991 6.30705 13.2822C6.05262 13.0532 5.76748 12.8432 5.56151 12.5755C5.38995 12.3525 5.19742 12.1095 4.95835 11.9568C4.72888 11.8102 4.61211 11.584 4.40179 11.4158C4.22715 11.2761 4.04112 11.0922 3.88665 10.9291C3.79577 10.8332 3.64303 10.7223 3.58119 10.6055C3.52022 10.4904 3.44334 10.3425 3.3948 10.2224C3.33248 10.0682 3.19483 9.82702 3.18771 9.66325C3.16891 9.23096 3.14111 8.8049 3.14111 8.36892C3.14111 7.79077 3.14982 7.19513 3.30679 6.63452C3.42114 6.22611 3.5809 5.87687 3.81934 5.52398C4.01457 5.23505 4.23291 5.02218 4.35261 4.69302C4.47233 4.36377 4.58927 3.99134 4.76162 3.70933C4.90123 3.48087 5.17931 3.46811 5.42431 3.44011C5.89687 3.3861 6.35599 3.34006 6.82219 3.25372C7.35159 3.15569 8.01537 3.0424 8.47893 3.35727C9.11544 3.78962 9.38113 4.68018 9.71113 5.34018C10.0175 5.95282 10.9026 6.40189 11.4818 6.69147C11.8994 6.90029 12.2797 6.89856 12.7373 6.89856C13.0956 6.89856 13.2088 6.71154 13.2498 6.36271C13.284 6.07207 13.2421 5.88207 13.444 5.63529C13.6916 5.33271 13.9626 4.98687 14.2775 4.75515C14.7353 4.41828 14.9997 3.93014 15.4528 3.6006C15.6464 3.4598 16.0989 3.63238 16.2553 3.75075C17.1109 4.39857 17.228 5.40589 17.3503 6.41448C17.4522 7.2552 17.4203 8.14197 17.3529 8.98502C17.3036 9.60103 16.9586 10.1628 16.6073 10.6521C16.228 11.1805 15.6342 11.6061 15.137 12.0293C14.6352 12.4564 14.323 13.1383 13.6951 13.3987C12.8502 13.749 11.9608 13.7948 11.0598 13.7948C10.6401 13.7948 10.4939 13.7921 10.1642 13.5566C9.74176 13.2549 9.399 12.857 9.80174 12.3347C10.3058 11.6811 11.4208 11.5615 12.1833 11.6099C12.5066 11.6304 12.6009 11.8995 12.5742 12.2027C12.5313 12.6899 12.2231 12.9758 11.7717 13.101C10.9338 13.3334 9.82237 13.238 8.99149 12.9974C8.76363 12.9315 8.65305 12.8211 8.54106 12.6195C8.3462 12.2688 8.10952 11.938 7.97155 11.5581C7.56119 10.4283 8.47906 9.87989 9.44709 9.54935C9.94693 9.37867 10.4697 9.28017 10.9796 9.14552C11.1921 9.08939 11.5028 8.94061 11.7303 8.95913C12.0196 8.98268 12.0404 9.61354 12.0409 9.7875C12.0431 10.4466 11.7504 10.9726 11.1504 11.2786C10.3064 11.709 9.08736 11.8922 8.25631 11.3252C7.74525 10.9765 7.62088 10.3406 7.75411 9.77715C7.90938 9.12039 8.21823 8.72655 8.87241 8.52424C9.14625 8.43955 10.525 7.96485 10.6586 8.49317C10.7822 8.98231 10.3445 9.52125 10.0218 9.80821C9.37058 10.3873 8.57562 10.8688 7.74375 11.1336C7.42014 11.2366 6.70944 11.4909 6.36658 11.2889C6.05735 11.1067 6.02619 10.5572 6.00417 10.2535C5.92078 9.10261 6.32168 8.07056 7.50818 7.72693C8.03764 7.57359 8.8462 7.35876 9.4005 7.49395C9.66812 7.55922 9.64996 8.10346 9.64642 8.30161C9.62406 9.55389 7.71897 10.3216 6.70311 9.73573C5.77873 9.2026 5.24525 7.8238 5.82297 6.86232C6.17024 6.28435 6.97295 6.01192 7.61173 5.98735C8.56426 5.95071 8.37896 7.33921 8.08287 7.85895C7.6832 8.56049 7.0698 8.9963 6.33552 9.30342C5.95176 9.46394 5.34462 9.7492 5.00754 9.35002C4.21508 8.41159 4.49019 7.02398 5.43467 6.32388C6.21157 5.74799 8.07512 5.1971 8.59542 6.35235C8.86089 6.94179 8.81181 7.59347 8.92418 8.21619C9.12732 9.34194 9.5337 10.4047 9.94411 11.465" stroke="#DB3328" stroke-width="3" stroke-linecap="round"/>
<path d="M12.5069 14.3535C12.8203 14.7923 12.9789 15.4056 12.3619 15.6789C11.966 15.8543 11.5843 15.7932 11.1712 15.8653C10.9445 15.9048 10.9692 15.7892 10.9692 15.565" stroke="#DB3328" stroke-width="3" stroke-linecap="round"/>
<path d="M15.2095 12.2102C15.1939 11.224 15.0563 10.2457 15.0334 9.25909C15.0211 8.72814 15.0329 8.34509 15.3493 7.92334" stroke="#DB3328" stroke-width="3" stroke-linecap="round"/>
</svg>
