<svg width="171" height="171" viewBox="0 0 171 171" fill="none" xmlns="http://www.w3.org/2000/svg">
<rect width="171" height="171" fill="white"/>
<path d="M49.2763 66.5955C49.2763 66.5955 47.7312 67.1645 47.7314 69.6852C47.7317 72.2059 47.7314 110.421 47.7314 111.966C47.7314 113.511 49.1625 119.365 56.1876 119.365C63.2128 119.365 89.6871 119.365 102.453 119.365" stroke="#FF7E1B" stroke-opacity="0.87" stroke-width="7" stroke-linecap="round"/>
<path d="M47 47L118.878 118.878M124 124L118.878 118.878M118.878 118.878C120.585 118.471 124 116.129 124 110.015" stroke="#FF7E1B" stroke-opacity="0.87" stroke-width="7" stroke-linecap="round"/>
<path d="M66.677 60.8227C67.4359 59.603 68.4658 58.7086 69.1976 55.7815C69.9294 52.8544 71.7182 51.8786 73.507 51.3908C74.938 51.0005 88.739 51.2282 95.4605 51.3908C97.5746 51.3908 102.063 52.9519 103.104 59.1965C104.405 67.0022 124 55.6189 124 71.7181C124 84.5976 124 92.2081 124 94.4035" stroke="#FF7E1B" stroke-opacity="0.87" stroke-width="7" stroke-linecap="round"/>
<path d="M79.6052 73.9135C88.3866 72.0163 105.104 73.7672 101.721 95.9484" stroke="#FF7E1B" stroke-opacity="0.87" stroke-width="7" stroke-linecap="round"/>
<path d="M70.4985 85.5405C68.8994 93.8612 70.775 109.641 91.0698 106.193" stroke="#FF7E1B" stroke-opacity="0.87" stroke-width="7" stroke-linecap="round"/>
</svg>
