<svg width="30" height="30" viewBox="0 0 30 30" fill="none" xmlns="http://www.w3.org/2000/svg">
<path d="M12.5126 2.65392C14.1052 1.99421 15.8948 1.99421 17.4874 2.65392L21.9711 4.51112C23.5638 5.17083 24.8292 6.43621 25.4889 8.02889L27.3461 12.5126C28.0058 14.1052 28.0058 15.8948 27.3461 17.4874L25.4889 21.9711C24.8292 23.5638 23.5638 24.8292 21.9711 25.4889L17.4874 27.3461C15.8948 28.0058 14.1052 28.0058 12.5126 27.3461L8.02889 25.4889C6.43621 24.8292 5.17083 23.5638 4.51112 21.9711L2.65392 17.4874C1.99421 15.8948 1.99421 14.1052 2.65392 12.5126L4.51112 8.02889C5.17083 6.43621 6.43621 5.17083 8.02889 4.51112L12.5126 2.65392Z" stroke="#313030" stroke-width="3"/>
<line x1="10" y1="19.8787" x2="19.8787" y2="10" stroke="#313030" stroke-width="3" stroke-linecap="round"/>
<circle cx="18.6667" cy="19.6667" r="1.66667" fill="#313030"/>
<circle cx="10.6667" cy="10.6667" r="1.66667" fill="#313030"/>
</svg>
