<svg width="18" height="16" viewBox="0 0 18 16" fill="none" xmlns="http://www.w3.org/2000/svg">
<path d="M8.52667 0.942205C8.68047 0.490359 9.31953 0.490363 9.47333 0.942203L10.7656 4.73867C10.9725 5.34657 11.5435 5.75532 12.1856 5.75532H16.2649C16.7549 5.75532 16.9525 6.38695 16.5499 6.66619L13.3309 8.89862C12.7806 9.28029 12.5499 9.98055 12.7657 10.6146L14.0139 14.2816C14.1694 14.7382 13.652 15.1284 13.2557 14.8536L9.85482 12.495C9.34071 12.1385 8.65929 12.1385 8.14518 12.495L4.74432 14.8536C4.34799 15.1284 3.83063 14.7382 3.98605 14.2816L5.23428 10.6146C5.45009 9.98055 5.21945 9.28029 4.66911 8.89862L1.45011 6.66618C1.04749 6.38696 1.24507 5.75532 1.73505 5.75532H5.81439C6.45654 5.75532 7.02746 5.34657 7.23438 4.73867L8.52667 0.942205Z" fill="#F2D32F" stroke="#B59A0C"/>
</svg>
